<svg width="50" height="50" viewBox="0 0 50 50" fill="none" xmlns="http://www.w3.org/2000/svg">
<g clip-path="url(#clip0_1_1110)">
<path d="M17.9244 35.133C17.4381 35.6287 17.1492 36.563 17.1492 37.2882C17.1492 39.4561 18.9067 41.2136 21.0746 41.2136C23.2426 41.2136 25 39.4561 25 37.2882V12.736C25 10.5546 23.2315 8.78613 21.0501 8.78613C20.2849 8.78614 19.5363 9.00837 18.895 9.42583C18.2538 9.84328 17.7476 10.438 17.438 11.1377L17.0815 11.9432" stroke="#2CA8E0" stroke-width="2" stroke-miterlimit="10" stroke-linecap="round" stroke-linejoin="round"/>
<path d="M17.4378 38.8994C16.7143 39.2606 15.8981 39.4637 15.0344 39.4637C12.0586 39.4637 9.6463 37.0514 9.6463 34.0756C9.6463 33.0625 9.92599 32.1146 10.4123 31.305M11.8644 18.261C11.5952 17.6689 11.4564 17.0259 11.4572 16.3754C11.4572 13.8583 13.4979 11.8176 16.0151 11.8176C17.5782 11.8176 18.9575 12.6045 19.7786 13.8038" stroke="#2CA8E0" stroke-width="2" stroke-miterlimit="10" stroke-linecap="round" stroke-linejoin="round"/>
<path d="M13.0427 18.2072C9.29121 18.2072 6.25 21.2484 6.25 24.9999C6.25 28.7514 9.29121 31.7926 13.0427 31.7926M32.0756 35.133C32.5619 35.6287 32.8508 36.563 32.8508 37.2882C32.8508 39.4561 31.0934 41.2136 28.9254 41.2136C26.7574 41.2136 25 39.4561 25 37.2882V12.736C25 10.5546 26.7685 8.78613 28.9499 8.78613C29.715 8.78614 30.4637 9.00837 31.105 9.42583C31.7462 9.84328 32.2524 10.438 32.562 11.1377L32.9185 11.9432" stroke="#2CA8E0" stroke-width="2" stroke-miterlimit="10" stroke-linecap="round" stroke-linejoin="round"/>
<path d="M32.5622 38.8994C33.2858 39.2606 34.102 39.4637 34.9656 39.4637C37.9414 39.4637 40.3537 37.0514 40.3537 34.0756C40.3537 33.0625 40.074 32.1146 39.5877 31.305M38.1357 18.261C38.4048 17.6689 38.5436 17.0259 38.5427 16.3754C38.5427 13.8583 36.5021 11.8176 33.9849 11.8176C32.4217 11.8176 31.0424 12.6045 30.2213 13.8038" stroke="#2CA8E0" stroke-width="2" stroke-miterlimit="10" stroke-linecap="round" stroke-linejoin="round"/>
<path d="M42.3306 29.1561C41.0881 30.7602 39.1433 31.7928 36.9572 31.7928M36.9573 18.2073C39.1419 18.2073 41.0856 19.2386 42.3282 20.8409M36.8828 26.2504C35.5017 26.2504 34.382 25.1308 34.382 23.7496M20.3813 31.7037C19.9318 31.0385 19.1708 30.6012 18.3076 30.6012M29.6436 31.7037C30.093 31.0385 30.854 30.6012 31.7172 30.6012M13.1172 26.2504C14.4983 26.2504 15.618 25.1308 15.618 23.7496M31.9597 18.2073C31.9597 19.5001 30.9116 20.5481 29.6188 20.5481M27.3532 26.0904C26.0604 26.0904 25 25.0424 25 23.7496C25 25.0424 23.9644 26.0904 22.6716 26.0904M18.0404 18.2073C18.0404 19.5001 19.0885 20.5481 20.3813 20.5481M39.2632 0.976562L36.3059 4.14941L39.1452 4.55615L36.2203 8.23389M10.7368 0.976562L13.6941 4.14941L10.8548 4.55615L13.7797 8.23389M49.0234 9.68242L45.0851 11.5583L47.5692 12.9925L43.4857 15.3176M0.976562 9.68242L4.91494 11.5583L2.43076 12.9925L6.51426 15.3176M37.5318 49.0234L35.2998 46.6032L37.4428 46.2962L35.2353 43.5205M49.0234 38.5133L45.7076 36.934L47.7991 35.7265L44.361 33.7688M0.976562 38.5133L4.29238 36.934L2.20088 35.7265L5.63896 33.7688M12.4682 49.0234L14.7002 46.6032L12.5572 46.2962L14.7647 43.5205" stroke="#8DC645" stroke-width="2" stroke-miterlimit="10" stroke-linecap="round" stroke-linejoin="round"/>
</g>
<defs>
<clipPath id="clip0_1_1110">
<rect width="50" height="50" fill="white"/>
</clipPath>
</defs>
</svg>
